# xmcd CD database file
#
# Track frame offsets:
#	150
#	16682
#	34837
#	52685
#	70427
#	85237
#	100572
#	116237
#	135365
#	157032
#
# Disc length: 2298 seconds
#
# Revision: 0
# Processed by: cddbd v1.5PL3 Copyright (c) Steve Scherf et al.
# Submitted via: CDex 1.50
#
DISCID=7508f80a
DTITLE=Tom Verlaine - Dreamtime
DYEAR=1981
DGENRE=Rock
TTITLE0=There's A Reason
TTITLE1=Penetration
TTITLE2=Always
TTITLE3=The Blue Robe
TTITLE4=Without A Word
TTITLE5=Mr. Blur
TTITLE6=Fragile
TTITLE7=A Future In Noise
TTITLE8=Down On The Farm
TTITLE9=Mary Marie
EXTD=YEAR: 1981
EXTT0=
EXTT1=
EXTT2=
EXTT3=
EXTT4=
EXTT5=
EXTT6=
EXTT7=
EXTT8=
EXTT9=
PLAYORDER=
